<?xml version="1.0" encoding="UTF-8"?>
<svg id="Capa_2" data-name="Capa 2" xmlns="http://www.w3.org/2000/svg" viewBox="0 0 476.65 360.84">
  <defs>
    <style>
      .cls-1 {
        letter-spacing: -.02em;
      }

      .cls-2 {
        fill: #fbcb00;
      }

      .cls-2, .cls-3, .cls-4 {
        stroke-width: 0px;
      }

      .cls-3 {
        fill-rule: evenodd;
      }

      .cls-3, .cls-4, .cls-5 {
        fill: #00257a;
      }

      .cls-5 {
        font-family: ProductSans-Italic, 'Product Sans';
        font-size: 25.53px;
        font-style: italic;
      }
    </style>
  </defs>
  <g id="Capa_2-2" data-name="Capa 2">
    <path class="cls-4" d="m146.75,215.46v-87.34c0-4.54,1.39-7.94,4.17-10.21,2.78-2.27,6.38-3.4,10.79-3.4s8.23,1.12,11.04,3.36c2.81,2.24,4.22,5.66,4.22,10.25v87.34c0,4.59-1.41,8.02-4.22,10.28-2.82,2.27-6.5,3.4-11.04,3.4s-7.92-1.15-10.74-3.44c-2.82-2.29-4.22-5.71-4.22-10.25Z"/>
    <path id="path6052" class="cls-2" d="m398.94,61.02v20.24h8.27v-20.24h-8.27Z"/>
    <path id="path6052-2" data-name="path6052" class="cls-2" d="m433.88,61.02v20.24h8.27v-20.24h-8.27Z"/>
    <rect class="cls-2" x="391.8" y="52.63" width="57.88" height="14.07" rx="5.61" ry="5.61"/>
    <path class="cls-4" d="m376.12,213.5h19.61c.56,0,1.01.45,1.01,1.01v5.79c0,4.64-3.77,8.41-8.41,8.41h-4.8c-4.64,0-8.41-3.77-8.41-8.41v-5.79c0-.56.45-1.01,1.01-1.01Z"/>
    <path class="cls-4" d="m445.79,213.5h19.54c.58,0,1.04.47,1.04,1.04v5.71c0,4.66-3.79,8.45-8.45,8.45h-4.73c-4.66,0-8.45-3.79-8.45-8.45v-5.71c0-.58.47-1.04,1.04-1.04Z"/>
    <g>
      <path class="cls-2" d="m431.48,76.64h-20.92c-24.95,0-45.17,20.22-45.17,45.17v83.54c0,4.49,3.64,8.14,8.14,8.14h9.25s75.92,0,75.92,0h0s9.81,0,9.81,0c4.49,0,8.14-3.64,8.14-8.14v-83.54c0-24.95-20.22-45.17-45.17-45.17Zm-20.64,18.86h19.81c12.32,0,22.31,9.99,22.31,22.31v77.3h-20.69v-7.67c0-2.24-1.81-4.05-4.05-4.05h-14.39c-2.24,0-4.05,1.81-4.05,4.05v7.67h-21.25v-77.3c0-12.32,9.99-22.31,22.31-22.31Z"/>
      <rect class="cls-2" x="408.91" y="115.96" width="24.97" height="48.78" rx="5.56" ry="5.56"/>
    </g>
    <path class="cls-4" d="m118.56,180.59c0,9.02-2.32,17.13-6.97,24.32-4.65,7.19-11.45,12.82-20.4,16.89-8.96,4.07-19.57,6.11-31.85,6.11-14.72,0-26.87-2.78-36.43-8.35-6.78-4-12.3-9.35-16.54-16.03-4.24-6.68-6.36-13.18-6.36-19.49,0-3.66,1.27-6.8,3.82-9.41,2.54-2.61,5.78-3.92,9.72-3.92,3.19,0,5.88,1.02,8.09,3.05,2.2,2.04,4.09,5.05,5.65,9.06,1.9,4.75,3.95,8.72,6.16,11.91,2.2,3.19,5.31,5.82,9.31,7.89,4,2.07,9.26,3.1,15.77,3.1,8.96,0,16.23-2.09,21.83-6.26,5.6-4.17,8.4-9.38,8.4-15.62,0-4.95-1.51-8.97-4.53-12.06-3.02-3.09-6.92-5.45-11.7-7.07s-11.18-3.36-19.18-5.19c-10.72-2.51-19.69-5.44-26.92-8.8s-12.96-7.94-17.2-13.74-6.36-13.01-6.36-21.63,2.24-15.5,6.72-21.88c4.48-6.38,10.96-11.28,19.44-14.71,8.48-3.43,18.45-5.14,29.92-5.14,9.16,0,17.08,1.14,23.76,3.41,6.68,2.27,12.23,5.29,16.64,9.06,4.41,3.77,7.63,7.72,9.67,11.86,2.04,4.14,3.05,8.18,3.05,12.11,0,3.6-1.27,6.84-3.82,9.72-2.54,2.88-5.72,4.33-9.51,4.33-3.46,0-6.09-.87-7.89-2.59-1.8-1.73-3.75-4.56-5.85-8.5-2.71-5.63-5.97-10.02-9.77-13.18-3.8-3.16-9.91-4.73-18.32-4.73-7.8,0-14.09,1.71-18.88,5.14s-7.17,7.55-7.17,12.37c0,2.99.81,5.56,2.44,7.73s3.87,4.04,6.72,5.6c2.85,1.56,5.73,2.78,8.65,3.66,2.92.88,7.73,2.17,14.45,3.87,8.41,1.97,16.03,4.14,22.85,6.51,6.82,2.38,12.62,5.26,17.4,8.65,4.78,3.39,8.51,7.68,11.2,12.87,2.68,5.19,4.02,11.55,4.02,19.08Z"/>
    <path class="cls-4" d="m345.7,164.72v28.6c0,3.8-.37,6.84-1.12,9.11-.75,2.27-2.12,4.33-4.12,6.16-2,1.83-4.56,3.6-7.68,5.29-9.02,4.88-17.71,8.45-26.05,10.69-8.35,2.24-17.44,3.36-27.27,3.36-11.47,0-21.92-1.77-31.34-5.29-9.43-3.53-17.47-8.65-24.12-15.37-6.65-6.72-11.75-14.86-15.32-24.42s-5.34-20.25-5.34-32.06,1.73-22.22,5.19-31.85c3.46-9.63,8.55-17.81,15.26-24.53,6.72-6.72,14.89-11.86,24.53-15.42,9.63-3.56,20.56-5.34,32.77-5.34,10.04,0,18.93,1.34,26.66,4.02,7.73,2.68,14.01,6.06,18.83,10.13s8.45,8.38,10.89,12.92c2.44,4.55,3.66,8.58,3.66,12.11,0,3.8-1.41,7.04-4.22,9.72-2.82,2.68-6.19,4.02-10.12,4.02-2.17,0-4.26-.51-6.26-1.53-2-1.02-3.68-2.44-5.04-4.27-3.73-5.83-6.89-10.24-9.46-13.23s-6.05-5.5-10.43-7.53c-4.38-2.04-9.96-3.05-16.74-3.05s-13.23,1.21-18.72,3.61c-5.5,2.41-10.19,5.9-14.09,10.48s-6.89,10.19-8.96,16.84c-2.07,6.65-3.1,14.01-3.1,22.08,0,17.5,4.02,30.97,12.06,40.4,8.04,9.43,19.25,14.15,33.63,14.15,6.99,0,13.55-.92,19.69-2.75,6.14-1.83,12.37-4.44,18.68-7.84v-24.22h-23.41c-5.63,0-9.89-.85-12.77-2.54-2.88-1.7-4.32-4.58-4.32-8.65,0-3.32,1.2-6.07,3.61-8.24,2.41-2.17,5.68-3.26,9.82-3.26h34.29c4.21,0,7.77.37,10.69,1.12,2.92.75,5.28,2.41,7.07,4.99,1.8,2.58,2.7,6.45,2.7,11.6Z"/>
    <path class="cls-2" d="m175.66,89.3c0,3.53-.8,6.5-2.4,8.92-.64.98-1.41,1.87-2.31,2.68-1.71,1.52-3.59,2.62-5.65,3.31-1.73.58-3.57.87-5.54.87-4.47,0-8.29-1.37-11.47-4.12-3.18-2.75-4.77-6.63-4.77-11.66,0-3.47.95-6.48,2.85-9.01.5-.67,1.06-1.31,1.7-1.92.11-.11.22-.21.33-.31,3.26-2.94,7.05-4.41,11.36-4.41s7.85,1.33,11.07,4,4.83,6.55,4.83,11.65Z"/>
    <path class="cls-2" d="m349.49,13.57s0,0,0,0c-.74-.01-1.37.54-1.45,1.28-.07.74.43,1.42,1.17,1.55l20.7,3.71-6.19,3.57c-.45.26-.67.79-.54,1.29.13.5.58.86,1.1.87l4.41.08c.13,0,.25-.02.37-.05l15.97-5.09,16.13.28c6.15.03,6.68-2.25,6.69-2.94.01-.54-.17-1.37-1.1-2.26-.94-.9-2.44-1.69-4.59-2.4-.72-.24-1.07-.45-1.45-.66-1.32-.77-2.29-1.18-8.1-1.29l-31.78-.61-6.89-10.21c-.26-.39-.69-.62-1.16-.63l-2.08-.04c-.43,0-.84.18-1.11.5-.28.33-.39.76-.32,1.18l2.15,11.93-1.92-.05Z"/>
    <path class="cls-2" d="m187.57,52.21c-2.89,1.98-11.23,9.57-7.81,13.7v-.03c3.08,3.73,12.14-1.38,14.93-3.29,2.78-1.91,11.52-9.02,9.13-13.17-2.64-4.58-13.36.81-16.24,2.79Z"/>
    <path class="cls-2" d="m226.67,28.08c-2.96,1.24-14.14,7.31-11.89,11.86v.02c2.06,4.2,13.52.28,16.45-.94,2.92-1.22,14.39-6.91,12.82-11.31-1.68-4.75-14.42-.88-17.38.36Z"/>
    <path class="cls-2" d="m259.29,22.37c1.06,4.07,12.94,2.13,15.62,1.53,2.69-.6,14.51-3.94,13.77-8.06-.79-4.36-13.34-2.65-16.05-2.04-2.71.6-14.53,4.29-13.34,8.6v-.03Z"/>
    <path class="cls-2" d="m333.25,13.05c0-4.08-11.21-4.71-13.8-4.59-1.8.06-3.59.26-5.36.58-2.36.47-8.6,1.76-8.79,4.94.62,3.03,6.78,3.66,9.2,3.91,1.75.2,3.51.25,5.27.17,2.57-.08,13.46-1.11,13.47-5.01Z"/>
    <g>
      <g>
        <path class="cls-4" d="m301.38,333.25c0-2.06-.31-3.83-.95-5.3-.62-1.47-1.49-2.62-2.61-3.41-1.12-.79-2.35-1.18-3.7-1.18-2.16,0-3.97.85-5.45,2.54-1.47,1.7-2.22,4.2-2.22,7.49,0,3.1.73,5.52,2.2,7.24,1.47,1.73,3.29,2.59,5.47,2.59,1.29,0,2.49-.38,3.59-1.13,1.1-.75,1.99-1.87,2.66-3.38.66-1.51,1-3.33,1-5.46m-15.28-11.35v.95c1.46-1.82,3-3.15,4.58-4,1.58-.85,3.37-1.28,5.37-1.28,2.41,0,4.62.61,6.64,1.85,2.02,1.24,3.62,3.06,4.79,5.44,1.17,2.38,1.76,5.2,1.76,8.46,0,2.4-.34,4.61-1.02,6.62-.67,2.01-1.61,3.7-2.79,5.07-1.18,1.37-2.58,2.41-4.19,3.14-1.61.73-3.34,1.1-5.19,1.1-2.23,0-4.1-.45-5.61-1.35-1.51-.89-2.96-2.21-4.33-3.94v11.73c0,3.44-1.25,5.15-3.75,5.15-1.46,0-2.44-.44-2.92-1.33-.48-.89-.71-2.18-.71-3.87v-33.7c0-1.48.32-2.6.98-3.33.64-.73,1.53-1.1,2.65-1.1s2.01.38,2.7,1.13c.69.76,1.04,1.84,1.04,3.26Zm-17.97-8.02c-1.08,0-2.01-.33-2.78-1-.77-.66-1.15-1.61-1.15-2.83,0-1.09.39-2,1.18-2.71.79-.71,1.71-1.07,2.75-1.07s1.9.32,2.68.97c.78.65,1.17,1.59,1.17,2.82s-.38,2.14-1.14,2.81c-.76.67-1.66,1.02-2.71,1.02Zm3.86,8.06v22.57c0,1.56-.37,2.74-1.11,3.54-.74.8-1.68,1.2-2.82,1.2s-2.07-.41-2.78-1.23c-.71-.82-1.07-1.99-1.07-3.51v-22.33c0-1.55.36-2.71,1.07-3.49.71-.78,1.64-1.17,2.78-1.17s2.08.39,2.82,1.17c.74.78,1.11,1.87,1.11,3.26Zm-24.54,16.05v6.52c0,1.58-.37,2.76-1.11,3.55-.74.79-1.68,1.19-2.82,1.19s-2.05-.4-2.77-1.2c-.72-.8-1.08-1.98-1.08-3.54v-21.74c0-3.5,1.27-5.26,3.8-5.26,1.29,0,2.22.41,2.79,1.23.58.82.89,2.04.95,3.64.93-1.6,1.88-2.82,2.87-3.64.99-.82,2.29-1.23,3.93-1.23s3.23.41,4.77,1.23c1.54.82,2.31,1.91,2.31,3.27,0,.96-.32,1.74-.99,2.36-.65.62-1.37.93-2.13.93-.28,0-.98-.18-2.07-.53-1.1-.35-2.07-.53-2.91-.53-1.14,0-2.07.3-2.8.9-.72.61-1.29,1.49-1.69,2.67-.4,1.18-.67,2.59-.83,4.22-.15,1.63-.22,3.61-.22,5.95Zm-13.16-24.34h-9.26v30.43c0,1.76-.39,3.05-1.18,3.9-.78.85-1.8,1.27-3.04,1.27s-2.29-.43-3.08-1.29c-.79-.86-1.19-2.15-1.19-3.88v-30.43h-9.26c-1.45,0-2.53-.32-3.23-.96-.7-.64-1.06-1.49-1.06-2.55s.37-1.94,1.1-2.58c.73-.63,1.8-.95,3.19-.95h27.02c1.47,0,2.56.32,3.28.98.71.65,1.07,1.5,1.07,2.55s-.37,1.9-1.09,2.55c-.72.63-1.81.96-3.26.96Z"/>
        <path class="cls-4" d="m387.58,322.37l5.09,17.45,4.63-16.22c.5-1.7.87-2.85,1.1-3.47.23-.61.68-1.21,1.35-1.78.65-.56,1.55-.84,2.7-.84s2.07.28,2.72.84c.66.57,1.12,1.18,1.39,1.83.27.65.64,1.8,1.12,3.42l4.63,16.22,5.14-17.45c.35-1.26.63-2.17.83-2.73.21-.56.57-1.05,1.06-1.48.5-.43,1.21-.64,2.15-.64s1.74.32,2.43.98c.68.64,1.02,1.41,1.02,2.28,0,.8-.29,2.01-.89,3.63l-6.37,18.7c-.56,1.58-.99,2.72-1.29,3.44-.3.7-.78,1.33-1.44,1.88-.65.56-1.55.83-2.7.83s-2.11-.29-2.78-.89c-.68-.59-1.18-1.32-1.5-2.17-.32-.86-.67-1.97-1.05-3.35l-4.46-15.21-4.32,15.21c-.57,2.12-1.19,3.71-1.85,4.79-.66,1.07-1.84,1.61-3.51,1.61-.86,0-1.59-.17-2.2-.5-.6-.33-1.09-.81-1.49-1.43-.4-.62-.75-1.35-1.06-2.2-.3-.85-.54-1.52-.71-2.02l-6.31-18.7c-.63-1.76-.95-2.97-.95-3.63,0-.84.33-1.59,1.01-2.25.66-.67,1.48-1.01,2.45-1.01,1.3,0,2.18.37,2.64,1.1.46.73.95,1.98,1.45,3.76m-17.68,11.02c0-3.18-.7-5.65-2.1-7.43-1.41-1.77-3.28-2.65-5.64-2.65-1.53,0-2.87.39-4.03,1.18-1.16.79-2.06,1.96-2.68,3.5-.63,1.54-.95,3.35-.95,5.4s.31,3.83.93,5.35c.63,1.52,1.5,2.69,2.65,3.5,1.15.81,2.52,1.21,4.08,1.21,2.36,0,4.24-.89,5.64-2.67,1.4-1.78,2.1-4.25,2.1-7.39Zm7.85,0c0,2.33-.36,4.47-1.08,6.43-.73,1.96-1.78,3.65-3.15,5.06-1.37,1.41-3.02,2.49-4.92,3.24-1.9.75-4.05,1.13-6.43,1.13s-4.5-.38-6.38-1.14c-1.88-.76-3.52-1.85-4.91-3.28-1.38-1.42-2.43-3.09-3.14-5.03-.71-1.94-1.07-4.08-1.07-6.42s.36-4.53,1.08-6.49c.73-1.96,1.77-3.64,3.12-5.04,1.36-1.39,3-2.46,4.92-3.21,1.92-.75,4.05-1.13,6.38-1.13s4.51.38,6.43,1.14c1.92.76,3.57,1.85,4.95,3.27,1.38,1.41,2.42,3.08,3.13,5.04.71,1.94,1.07,4.09,1.07,6.43Zm-56.35-11.57v.95c1.38-1.82,2.88-3.14,4.51-3.99,1.63-.85,3.5-1.27,5.62-1.27s3.89.45,5.52,1.35c1.62.89,2.83,2.16,3.63,3.8.52.96.85,1.98,1.01,3.09.15,1.1.22,2.51.22,4.23v14.53c0,1.56-.36,2.74-1.07,3.54-.71.8-1.65,1.2-2.79,1.2s-2.11-.41-2.84-1.23c-.72-.82-1.08-1.99-1.08-3.51v-13.02c0-2.57-.36-4.54-1.07-5.9-.71-1.36-2.14-2.04-4.27-2.04-1.39,0-2.65.41-3.81,1.24-1.14.83-1.98,1.97-2.51,3.43-.38,1.16-.58,3.33-.58,6.52v9.78c0,1.58-.37,2.76-1.1,3.55-.73.79-1.68,1.19-2.83,1.19s-2.05-.41-2.77-1.23c-.72-.82-1.08-1.99-1.08-3.51v-22.57c0-1.48.32-2.6.97-3.33.65-.73,1.53-1.1,2.66-1.1.68,0,1.31.17,1.85.49.56.32,1,.81,1.33,1.45.33.65.5,1.44.5,2.37Z"/>
        <path class="cls-3" d="m434.37,309.97c2.28,0,4.13,1.85,4.13,4.13s-1.85,4.13-4.13,4.13-4.13-1.85-4.13-4.13,1.85-4.13,4.13-4.13m0-.84c2.75,0,4.97,2.23,4.97,4.97s-2.23,4.97-4.97,4.97-4.97-2.23-4.97-4.97,2.23-4.97,4.97-4.97Z"/>
        <path class="cls-4" d="m433.05,313.75h1.53c.33,0,.58-.03.76-.1.18-.07.32-.17.42-.32.1-.15.14-.31.14-.48,0-.26-.09-.47-.28-.63-.18-.16-.48-.25-.87-.25h-1.71v1.79Zm-.72,3.02v-5.4h2.39c.48,0,.85.05,1.1.15.25.1.45.27.6.51.15.25.22.52.22.81,0,.38-.12.71-.37.97-.25.26-.63.43-1.15.5.19.09.33.18.43.27.21.19.41.43.59.72l.93,1.47h-.89l-.71-1.12c-.21-.33-.38-.57-.51-.75-.14-.17-.26-.29-.36-.36-.11-.07-.21-.12-.33-.14-.08-.02-.21-.03-.4-.03h-.83v2.4h-.72Z"/>
        <path class="cls-4" d="m292.26,296.15c-.75-2.16,4.56-4.28,5.95-4.67,1.38-.39,7.3-1.45,7.8.76.47,2.06-4.97,3.99-6.33,4.38-1.38.39-6.72,1.55-7.42-.46m22.04-5.55c-.33-1.98,5.12-3.12,6.37-3.28,1.24-.15,6.94-.38,7.11,1.61.16,1.88-5.29,2.87-6.53,3.02-1.24.15-6.63.52-6.94-1.35Zm23.47-2.2c.16-1.41,2.98-1.87,4.06-2.04.24-.11,2.07-.15,2.43-.15,1.16.02,6.2.51,6.11,2.35-.09,1.76-5.01,1.99-6.17,1.98-.41,0-2.06-.07-2.37-.18-1.08-.17-3.84-.58-4.06-1.96Zm19.94.69c.14-1.55,4.34-1.41,5.33-1.29,1,.12,5.01.99,4.77,2.55-.24,1.5-4.23,1.28-5.23,1.15-.99-.12-5-.92-4.86-2.41Zm17.36,2.58c.29-1.38,3.78-.9,4.68-.69.9.22,4.14,1.34,3.77,2.72-.36,1.32-3.67.8-4.56.59-.89-.21-4.16-1.29-3.88-2.61Zm14.46,3.84c.4-1.2,4-.17,4.74.1.75.28,4.02,1.81,3.52,2.99-.48,1.12-3.81.06-4.56-.22-.74-.28-4.07-1.74-3.7-2.88Zm15.17,6.37c.5-.94,3.05.23,3.64.57.6.35,2.75,1.93,2.16,2.83-.56.86-2.86-.28-3.45-.63-.59-.35-2.82-1.88-2.35-2.78Zm10.68,6.95c.5-.62,1.98.41,2.37.76.39.35,1.55,1.66.99,2.23-.53.54-1.87-.43-2.27-.79-.4-.35-1.57-1.61-1.09-2.2Zm-142.49-3.37c-1.33-2.01,2.76-5.02,4.15-5.77,1.36-.74,6.45-2.66,7.41-.48.88,1.98-3.38,4.75-4.72,5.47-1.37.74-5.65,2.6-6.85.78Z"/>
        <path class="cls-3" d="m268.08,305.57c2.35,0,4.25,1.96,4.25,4.37s-1.9,4.37-4.25,4.37-4.25-1.96-4.25-4.37,1.9-4.37,4.25-4.37"/>
        <path class="cls-4" d="m469.57,345.7l-3.2-4.7-3.28,4.7c-.47.66-.88,1.13-1.2,1.41-.33.28-.74.42-1.25.42-.56,0-1.04-.18-1.43-.52-.39-.35-.59-.75-.59-1.2s.3-1.13.91-1.99l3.99-5.72-3.54-4.77c-.61-.78-.92-1.47-.92-2.05,0-.45.18-.85.55-1.18.36-.34.84-.5,1.43-.5.52,0,.94.14,1.29.44.34.29.73.75,1.19,1.37l2.86,3.92,2.78-3.92c.46-.65.87-1.11,1.2-1.39.34-.28.76-.42,1.27-.42.58,0,1.06.17,1.45.49.38.33.57.73.57,1.19,0,.34-.08.66-.23.96-.16.31-.4.67-.72,1.09l-3.54,4.77,3.99,5.72c.62.89.94,1.57.94,2.02s-.19.86-.58,1.19c-.39.34-.87.5-1.44.5-.51,0-.93-.14-1.29-.44-.35-.29-.75-.76-1.2-1.39m-23.53-6.82v5.87c0,.93-.21,1.62-.63,2.09-.42.46-.98.69-1.66.69s-1.21-.23-1.62-.69c-.41-.46-.62-1.16-.62-2.09v-7.03c0-1.11-.04-1.98-.12-2.59-.07-.61-.28-1.12-.61-1.51-.34-.39-.86-.59-1.59-.59-1.45,0-2.39.5-2.85,1.49-.46.99-.69,2.41-.69,4.26v5.96c0,.92-.21,1.61-.62,2.08-.41.47-.96.7-1.63.7s-1.21-.23-1.64-.7c-.42-.47-.64-1.16-.64-2.08v-12.62c0-.83.19-1.46.57-1.89.38-.43.88-.65,1.51-.65s1.11.2,1.51.61.61.96.61,1.67v.42c.76-.92,1.58-1.59,2.46-2.02.87-.43,1.84-.65,2.91-.65s2.06.22,2.86.66c.8.44,1.46,1.11,1.97,2,.74-.91,1.54-1.57,2.39-2.01.85-.44,1.79-.66,2.83-.66,1.21,0,2.25.24,3.12.71.87.47,1.53,1.15,1.96,2.04.38.79.56,2.05.56,3.76v8.62c0,.93-.21,1.62-.63,2.09-.42.46-.98.69-1.66.69s-1.21-.23-1.64-.7c-.43-.47-.64-1.16-.64-2.08v-7.42c0-.95-.04-1.71-.12-2.28-.08-.57-.3-1.05-.66-1.44-.35-.39-.89-.58-1.62-.58-.58,0-1.14.17-1.66.52-.52.34-.93.8-1.22,1.39-.33.74-.49,2.06-.49,3.95Zm-21.45,8.65c-.67,0-1.24-.22-1.73-.65-.49-.43-.73-1.04-.73-1.81,0-.66.23-1.23.7-1.7.46-.47,1.04-.71,1.72-.71s1.26.23,1.74.7c.48.47.72,1.04.72,1.71,0,.76-.24,1.36-.72,1.8-.48.44-1.04.66-1.69.66Z"/>
      </g>
      <text class="cls-5" transform="translate(156.79 323.33) scale(1.12 1)"><tspan class="cls-1" x="0" y="0">b</tspan><tspan x="14.19" y="0">y</tspan></text>
    </g>
  </g>
</svg>